<?xml version="1.0" encoding="UTF-8"?>
<svg version="1.1" xmlns="http://www.w3.org/2000/svg" width="602" height="414">
<path d="M0 0 C198.66 0 397.32 0 602 0 C602 136.62 602 273.24 602 414 C403.34 414 204.68 414 0 414 C0 277.38 0 140.76 0 0 Z " fill="#FDFDFD" transform="translate(0,0)"/>
<path d="M0 0 C10.07235345 6.19060119 18.19612147 15.14315215 21.26171875 26.734375 C23.51257416 40.97718278 21.19193829 53.3112526 13.7265625 65.67578125 C7.96322673 73.36880533 -0.84644179 78.71051255 -10.2734375 80.67578125 C-13.66611282 80.91993845 -17.06032846 80.90687585 -20.4609375 80.92578125 C-21.36908203 80.94640625 -22.27722656 80.96703125 -23.21289062 80.98828125 C-34.37823533 81.05222023 -42.2403728 77.62104667 -50.15234375 69.82421875 C-60.43565495 58.67471071 -62.98769542 47.16186274 -62.65234375 32.390625 C-62.03119315 21.23885668 -55.98885009 11.81747639 -47.8984375 4.42578125 C-35.21062137 -5.92183768 -14.62288411 -6.84844836 0 0 Z " fill="#121E2A" transform="translate(336.2734375,263.32421875)"/>
<path d="M0 0 C1.01271973 0.00644531 2.02543945 0.01289063 3.06884766 0.01953125 C14.49106327 0.29763101 23.46023441 3.08592234 31.81640625 11.2734375 C40.35706827 21.10813922 43.41256578 32.04500038 43.1015625 44.9375 C42.20459687 54.02675171 39.18418786 62.1815117 33.75 69.5 C32.698125 71.046875 32.698125 71.046875 31.625 72.625 C27.93662893 76.88170497 22.76091034 79.13741501 17.75 81.5 C17.03972656 81.84417969 16.32945313 82.18835938 15.59765625 82.54296875 C5.34022072 86.73650765 -7.22370831 85.35588818 -17.4140625 81.7578125 C-21.62435331 79.89043834 -24.91665192 77.66410524 -28.25 74.5 C-28.86488281 73.92507812 -29.47976562 73.35015625 -30.11328125 72.7578125 C-39.47080919 63.09972156 -41.58760786 51.15333461 -41.63500977 38.28198242 C-41.44514116 26.89910281 -37.2785239 17.6252531 -29.25 9.5 C-20.44251761 2.14430042 -11.30049011 -0.07507384 0 0 Z " fill="#141F2B" transform="translate(44.25,154.5)"/>
<path d="M0 0 C1.01707031 -0.01474365 2.03414063 -0.0294873 3.08203125 -0.04467773 C14.9287958 0.11549144 23.51838408 4.54980855 32.03515625 12.52734375 C40.19065085 20.95722882 43.381112 29.58848915 43.4375 41.1875 C43.21459824 53.22536832 40.34243788 63.32649636 32.19140625 72.53515625 C21.50024657 82.64841541 9.41940029 85.08742587 -4.7890625 84.83984375 C-15.55685788 84.36290967 -24.00642292 79.0598102 -31.25 71.375 C-40.08636109 60.49207027 -42.15341268 47.14436284 -41.0625 33.5625 C-38.71895348 21.36540561 -33.03791582 12.83660852 -23.0625 5.5625 C-22.36511719 5.05203125 -21.66773438 4.5415625 -20.94921875 4.015625 C-14.29660443 0.13947001 -7.50782761 0.07249803 0 0 Z " fill="#121E2B" transform="translate(475.0625,154.4375)"/>
<path d="M0 0 C3.95616976 1.5824679 7.57459445 3.26715428 11.33984375 5.23046875 C11.94325089 5.54397781 12.54665802 5.85748688 13.16835022 6.18049622 C15.09255837 7.18062362 17.01513175 8.18384129 18.9375 9.1875 C20.82795097 10.17287774 22.71878014 11.15751473 24.61024475 12.14094543 C26.35022431 13.04585849 28.08909233 13.95290792 29.82788086 14.86010742 C35.86099069 17.95450778 41.93543223 20.96771611 48 24 C48 57.33 48 90.66 48 125 C32.16 125 16.32 125 0 125 C0 83.75 0 42.5 0 0 Z " fill="#EAA730" transform="translate(364,21)"/>
<path d="M0 0 C0 38.61 0 77.22 0 117 C-13.53 117 -27.06 117 -41 117 C-41.22597779 104.71723822 -41.40940974 92.43585782 -41.51812172 80.15148735 C-41.57030022 74.44721092 -41.64105933 68.74443076 -41.75439453 63.04101562 C-41.86310096 57.53604587 -41.92285122 52.03251434 -41.94877243 46.52655411 C-41.96724202 44.42680333 -42.00331209 42.32713086 -42.05730057 40.22799301 C-42.46401627 23.75843703 -42.46401627 23.75843703 -38.86761475 19.43878174 C-36.25761527 17.84515804 -33.90929636 16.90854228 -31 16 C-29.46146731 15.1781412 -27.93713768 14.32835439 -26.4375 13.4375 C-24.95916955 12.6234795 -23.47999622 11.81098795 -22 11 C-16.18306362 7.80101684 -10.44569976 4.53499702 -4.84765625 0.9609375 C-3 0 -3 0 0 0 Z " fill="#4BA799" transform="translate(359,29)"/>
<path d="M0 0 C10.085625 -0.1546875 10.085625 -0.1546875 20.375 -0.3125 C23.52748291 -0.38078003 23.52748291 -0.38078003 26.74365234 -0.45043945 C46.0142483 -0.69542665 46.0142483 -0.69542665 53.90771484 6.81518555 C59.54702315 12.78219975 60.5208532 18.58223593 60.375 26.640625 C59.60466399 33.5415518 56.61366805 38.85629706 51.5 43.5 C48.83377648 45.56530225 46.25431813 47.01384299 43 48 C44.34505239 51.58399916 45.94597676 54.79935678 47.8984375 58.08984375 C48.46046875 59.03923828 49.0225 59.98863281 49.6015625 60.96679688 C50.47941406 62.43729492 50.47941406 62.43729492 51.375 63.9375 C51.9525 64.91396484 52.53 65.89042969 53.125 66.89648438 C56.6389198 72.81436754 56.6389198 72.81436754 60.4140625 78.56640625 C62 81 62 81 62 83 C55.4 83 48.8 83 42 83 C41.19175781 81.44410156 40.38351562 79.88820313 39.55078125 78.28515625 C38.47141908 76.21090372 37.39198835 74.13668687 36.3125 72.0625 C35.78205078 71.04091797 35.25160156 70.01933594 34.70507812 68.96679688 C33.64845945 66.93782972 32.58227516 64.91381391 31.50634766 62.89501953 C30.54438881 61.04624999 29.62728223 59.17297229 28.77099609 57.27294922 C28.38637207 56.45971191 28.00174805 55.64647461 27.60546875 54.80859375 C27.2911792 54.09372803 26.97688965 53.3788623 26.65307617 52.64233398 C24.43213248 50.10112743 24.43213248 50.10112743 17 50 C17 60.89 17 71.78 17 83 C11.39 83 5.78 83 0 83 C0 55.61 0 28.22 0 0 Z " fill="#131F2C" transform="translate(528,156)"/>
<path d="M0 0 C10.085625 -0.1546875 10.085625 -0.1546875 20.375 -0.3125 C23.52748291 -0.38078003 23.52748291 -0.38078003 26.74365234 -0.45043945 C46.0142483 -0.69542665 46.0142483 -0.69542665 53.90771484 6.81518555 C59.44900586 12.67848658 60.44184943 18.28983289 60.43603516 26.25732422 C60.23987676 33.12622111 58.12738931 37.60430919 53.54296875 42.58203125 C50.36539805 45.49131102 47.12858086 46.91870501 43 48 C47.1551696 56.76865672 52.14044625 64.91077091 57.26757812 73.13671875 C57.87666016 74.12285156 58.48574219 75.10898438 59.11328125 76.125 C59.66798096 77.01445312 60.22268066 77.90390625 60.79418945 78.8203125 C62 81 62 81 62 83 C55.4 83 48.8 83 42 83 C41.05125 81.06125 40.1025 79.1225 39.125 77.125 C38.48256824 75.8511434 37.8370867 74.57881669 37.1875 73.30859375 C36.04709388 71.07738709 34.92355839 68.84203558 33.83203125 66.58642578 C32.62765955 64.10313995 31.38026697 61.64538259 30.125 59.1875 C29.56449951 57.99568115 29.56449951 57.99568115 28.99267578 56.77978516 C28.6057959 56.04163574 28.21891602 55.30348633 27.8203125 54.54296875 C27.49305176 53.88321045 27.16579102 53.22345215 26.82861328 52.54370117 C24.24316662 50.07048826 24.24316662 50.07048826 16 50 C16 60.89 16 71.78 16 83 C10.72 83 5.44 83 0 83 C0 55.61 0 28.22 0 0 Z " fill="#101C29" transform="translate(287,156)"/>
<path d="M0 0 C0 30.36 0 60.72 0 92 C-12.87 92 -25.74 92 -39 92 C-39 68.57 -39 45.14 -39 21 C-2.25 0 -2.25 0 0 0 Z " fill="#3DA4C2" transform="translate(314,54)"/>
<path d="M0 0 C5.94 0 11.88 0 18 0 C18.00410889 1.71509766 18.00821777 3.43019531 18.01245117 5.19726562 C18.03191396 10.88918385 18.07432482 16.5806279 18.13209057 22.27228546 C18.16625777 25.7203476 18.19145428 29.16797156 18.19555664 32.61621094 C18.20068736 36.58828767 18.24590249 40.55944043 18.29296875 44.53125 C18.2890361 45.75863892 18.28510345 46.98602783 18.28105164 48.25061035 C18.40073773 55.32218399 19.07249958 60.64398766 24 66 C28.419437 68.2097185 34.18947187 67.4155079 39 67 C42.75077646 65.31861745 44.30758912 63.99913813 46.61645508 60.66748047 C48.69886659 55.14745475 48.4809517 49.79948901 48.51171875 43.9453125 C48.52966995 42.68862762 48.54762115 41.43194275 48.56611633 40.13717651 C48.61100911 36.81304376 48.6433604 33.48927661 48.66955566 30.16497803 C48.69945334 26.76610078 48.74595173 23.36745402 48.79101562 19.96875 C48.8759166 13.31258591 48.9427422 6.65645697 49 0 C54.61 0 60.22 0 66 0 C66.07446173 7.79213398 66.12875012 15.58405827 66.16479492 23.37646484 C66.17983019 26.02428803 66.20026376 28.67208653 66.22631836 31.31982422 C66.26293261 35.13775752 66.27977966 38.95535993 66.29296875 42.7734375 C66.30845261 43.94675629 66.32393646 45.12007507 66.33988953 46.32894897 C66.34210039 57.26072879 64.48945999 65.79463575 57 74 C49.04286977 81.78030512 39.9537697 84.32445817 29.10546875 84.21875 C20.71717658 83.62787659 13.79212566 80.08057968 7.9375 74.0625 C0.72596956 64.98227769 -0.73414134 54.50090687 -0.48828125 43.26171875 C-0.48120651 42.01493851 -0.47413177 40.76815826 -0.46684265 39.4835968 C-0.43913764 35.55092099 -0.37644076 31.61973623 -0.3125 27.6875 C-0.2845225 25.00068731 -0.26423411 22.31383486 -0.24414062 19.62695312 C-0.18938881 13.08407203 -0.10328088 6.54228767 0 0 Z " fill="#15212D" transform="translate(371,261)"/>
<path d="M0 0 C61.38 0 122.76 0 186 0 C186 5.28 186 10.56 186 16 C124.62 16 63.24 16 0 16 C0 10.72 0 5.44 0 0 Z " fill="#78C5BB" transform="translate(4,287)"/>
<path d="M0 0 C16.17 0 32.34 0 49 0 C49 4.62 49 9.24 49 14 C38.11 14 27.22 14 16 14 C16 21.26 16 28.52 16 36 C25.24 36 34.48 36 44 36 C44 40.29 44 44.58 44 49 C35.09 49 26.18 49 17 49 C17 55.93 17 62.86 17 70 C27.56 70 38.12 70 49 70 C49 74.62 49 79.24 49 84 C32.83 84 16.66 84 0 84 C0 56.28 0 28.56 0 0 Z " fill="#16222F" transform="translate(224,155)"/>
<path d="M0 0 C0 22.44 0 44.88 0 68 C-12.87 68 -25.74 68 -39 68 C-39 52.16 -39 36.32 -39 20 C-31.67008352 15.99358602 -24.33749118 11.99247685 -17 8 C-16.18096191 7.55333984 -15.36192383 7.10667969 -14.51806641 6.64648438 C-12.43108682 5.50986227 -10.3412096 4.37881537 -8.25 3.25 C-7.63761475 2.91548828 -7.02522949 2.58097656 -6.39428711 2.23632812 C-2.23002772 0 -2.23002772 0 0 0 Z " fill="#40B088" transform="translate(271,78)"/>
<path d="M0 0 C1.02963867 -0.02416992 1.02963867 -0.02416992 2.08007812 -0.04882812 C8.5585631 -0.05495725 12.99485917 1.80774649 18.375 5.5 C24.48565503 11.61065503 26.32167045 18.47153942 26.5 26.9375 C26.41373878 36.16745002 24.03090544 43.13190224 17.69921875 49.91015625 C11.84009033 55.34536841 5.88721081 55.62738035 -1.77734375 55.515625 C-8.15121359 55.08905971 -12.12827078 53.39047244 -16.5625 48.75 C-23.86861636 39.50450263 -25.13655076 29.76437763 -23.8125 18.3125 C-21.5149376 10.40319227 -16.80707501 5.60078355 -10.0859375 1.17578125 C-6.7627024 -0.08613448 -3.50463362 -0.01618021 0 0 Z " fill="#FBFBFB" transform="translate(314.8125,274.6875)"/>
<path d="M0 0 C46.53 0 93.06 0 141 0 C141 5.28 141 10.56 141 16 C94.47 16 47.94 16 0 16 C0 10.72 0 5.44 0 0 Z " fill="#59C0B3" transform="translate(458,287)"/>
<path d="M0 0 C6.08218277 3.87164155 9.65822252 9.39971398 11.859375 16.18359375 C13.21265871 26.26322414 11.78098265 36.34335479 5.546875 44.62109375 C-1.26166361 51.11295614 -7.90978486 52.56885336 -17.1015625 52.45703125 C-23.1545943 51.91241399 -27.2500129 49.41550648 -31.390625 45.05859375 C-38.34928407 36.02754714 -39.41771664 26.22931619 -38.140625 15.18359375 C-36.16760364 8.39151136 -32.27019222 2.83420119 -26.140625 -0.81640625 C-17.66495977 -4.21135503 -8.15200844 -4.29914314 0 0 Z " fill="#FBFBFB" transform="translate(58.140625,171.81640625)"/>
<path d="M0 0 C5.69883124 3.54175297 10.48554772 8.97453987 12.36328125 15.46875 C12.66377815 18.43220777 12.68800122 21.36696514 12.67578125 24.34375 C12.69189453 25.12105469 12.70800781 25.89835937 12.72460938 26.69921875 C12.73129635 34.65672433 9.96890581 41.69108581 4.36328125 47.46875 C-3.2660004 52.41061346 -10.67187756 53.21227948 -19.63671875 52.46875 C-25.90064829 50.79163338 -30.08322565 46.76567565 -33.63671875 41.46875 C-38.20755308 33.09483867 -39.16598495 22.95578434 -36.57421875 13.78125 C-34.04575168 7.21899592 -29.66173368 2.17373074 -23.38671875 -1.03125 C-15.55499366 -4.00969893 -7.59187561 -3.39031128 0 0 Z " fill="#FAFBFA" transform="translate(488.63671875,171.53125)"/>
<path d="M0 0 C16.83 0 33.66 0 51 0 C51 4.62 51 9.24 51 14 C39.78 14 28.56 14 17 14 C17 20.93 17 27.86 17 35 C25.58 35 34.16 35 43 35 C43 39.29 43 43.58 43 48 C34.42 48 25.84 48 17 48 C17 59.55 17 71.1 17 83 C11.39 83 5.78 83 0 83 C0 55.61 0 28.22 0 0 Z " fill="#14202D" transform="translate(160,156)"/>
<path d="M0 0 C6.6 0 13.2 0 20 0 C21.78138172 3.66058499 23.56052713 7.32214403 25.33447266 10.98632812 C25.93643447 12.22813522 26.53959047 13.46936428 27.14404297 14.70996094 C30.71465317 22.04066645 34.12164856 29.36774039 37 37 C39.28142175 33.57786738 40.96219861 29.98531777 42.6953125 26.26953125 C43.04761932 25.51911057 43.39992615 24.76868988 43.76290894 23.99552917 C44.88587345 21.60224161 46.00547564 19.20739843 47.125 16.8125 C47.88649758 15.18804734 48.64821374 13.56369714 49.41015625 11.93945312 C51.27638779 7.96100529 53.13806402 3.98047133 55 0 C60.94 0 66.88 0 73 0 C71.6522555 3.36936124 70.30512955 6.51591451 68.69335938 9.74267578 C68.0125531 11.10901657 68.0125531 11.10901657 67.31799316 12.50296021 C66.83149292 13.47393646 66.34499268 14.44491272 65.84375 15.4453125 C65.34081421 16.45214081 64.83787842 17.45896912 64.31970215 18.49630737 C63.25822659 20.61993781 62.19574434 22.74306531 61.13232422 24.86572266 C59.50319052 28.11862945 57.87833953 31.3736501 56.25390625 34.62890625 C55.22161072 36.69283667 54.18906709 38.75664303 53.15625 40.8203125 C52.66974976 41.79533722 52.18324951 42.77036194 51.68200684 43.77493286 C51.22813599 44.6795224 50.77426514 45.58411194 50.30664062 46.51611328 C49.70946228 47.70927658 49.70946228 47.70927658 49.10021973 48.92654419 C48 51 48 51 46 54 C45.6303565 57.10208984 45.6303565 57.10208984 45.5859375 60.63671875 C45.54726562 61.93544922 45.50859375 63.23417969 45.46875 64.57226562 C45.43729483 65.94400573 45.40604749 67.31575061 45.375 68.6875 C45.33680803 70.07098785 45.29775558 71.45445223 45.2578125 72.83789062 C45.16339733 76.22503472 45.08060428 79.61249911 45 83 C39.72 83 34.44 83 29 83 C29.06703125 81.08960938 29.1340625 79.17921875 29.203125 77.2109375 C29.44569874 60.15434842 27.23589207 48.30285554 17.71240234 33.72998047 C14.66042947 28.86440295 12.11034588 23.73674031 9.5 18.625 C8.53180986 16.76272966 7.56308921 14.90073499 6.59375 13.0390625 C4.35028421 8.71352493 2.18001585 4.36003171 0 0 Z " fill="#121D2A" transform="translate(195,261)"/>
<path d="M0 0 C16.83 0 33.66 0 51 0 C51 4.29 51 8.58 51 13 C39.78 13 28.56 13 17 13 C17 20.26 17 27.52 17 35 C25.91 35 34.82 35 44 35 C44 39.29 44 43.58 44 48 C35.09 48 26.18 48 17 48 C17 59.55 17 71.1 17 83 C11.39 83 5.78 83 0 83 C0 55.61 0 28.22 0 0 Z " fill="#14202D" transform="translate(97,156)"/>
<path d="M0 0 C16.5 0 33 0 50 0 C50 4.29 50 8.58 50 13 C38.78 13 27.56 13 16 13 C16 20.26 16 27.52 16 35 C24.91 35 33.82 35 43 35 C43 39.29 43 43.58 43 48 C34.09 48 25.18 48 16 48 C16 59.55 16 71.1 16 83 C10.72 83 5.44 83 0 83 C0 55.61 0 28.22 0 0 Z " fill="#101C29" transform="translate(375,156)"/>
<path d="M0 0 C0 13.86 0 27.72 0 42 C-13.2 42 -26.4 42 -40 42 C-40.103125 37.9575 -40.20625 33.915 -40.3125 29.75 C-40.35802002 28.48124023 -40.40354004 27.21248047 -40.45043945 25.90527344 C-40.55359805 17.60200487 -40.55359805 17.60200487 -37.54296875 14.328125 C-36.70378906 13.88984375 -35.86460937 13.4515625 -35 13 C-34.67 12.34 -34.34 11.68 -34 11 C-32.00976562 10.19384766 -32.00976562 10.19384766 -29.40625 9.4140625 C-28.4575 9.12273437 -27.50875 8.83140625 -26.53125 8.53125 C-25.5309375 8.2321875 -24.530625 7.933125 -23.5 7.625 C-17.07182646 5.6931287 -10.90441303 3.6857474 -4.85742188 0.74755859 C-3 0 -3 0 0 0 Z " fill="#305292" transform="translate(228,104)"/>
<path d="M0 0 C0.72251953 0.00451172 1.44503906 0.00902344 2.18945312 0.01367188 C3.93883944 0.02525721 5.68818199 0.04318238 7.4375 0.0625 C7.4375 3.0325 7.4375 6.0025 7.4375 9.0625 C-53.2825 9.0625 -114.0025 9.0625 -176.5625 9.0625 C-176.5625 7.0825 -176.5625 5.1025 -176.5625 3.0625 C-174.625 2.5 -174.625 2.5 -172.5625 2.0625 C-172.2325 2.3925 -171.9025 2.7225 -171.5625 3.0625 C-168.43226516 3.16318417 -165.3240508 3.1986416 -162.19335938 3.19189453 C-161.20970901 3.19364685 -160.22605865 3.19539917 -159.21260071 3.19720459 C-155.94379947 3.20162505 -152.67505184 3.19868443 -149.40625 3.1953125 C-147.14562978 3.19598548 -144.88500962 3.19695546 -142.62438965 3.19821167 C-137.87963168 3.19968891 -133.13489251 3.19753326 -128.39013672 3.19287109 C-122.29311376 3.1871738 -116.19613481 3.19045266 -110.09911346 3.19644356 C-105.42901271 3.20004848 -100.75892247 3.1989109 -96.08882141 3.19631577 C-93.84003189 3.1956463 -91.59124143 3.19647558 -89.342453 3.19879532 C-86.20548962 3.20132071 -83.06859859 3.19748285 -79.93164062 3.19189453 C-78.99238235 3.19391876 -78.05312408 3.19594299 -77.08540344 3.19802856 C-73.00080158 3.60171244 -73.00080158 3.60171244 -69.5625 2.0625 C-67.98423146 1.94494216 -66.40084479 1.89521293 -64.81835938 1.87304688 C-63.80640503 1.85632935 -62.79445068 1.83961182 -61.75183105 1.8223877 C-60.64778931 1.80881226 -59.54374756 1.79523682 -58.40625 1.78125 C-57.27481567 1.76284058 -56.14338135 1.74443115 -54.97766113 1.72546387 C-51.33932888 1.66650448 -47.70094715 1.61384712 -44.0625 1.5625 C-40.45262277 1.51095785 -36.84280597 1.45790019 -33.23303223 1.39953613 C-30.98366363 1.36318286 -28.7342284 1.33068404 -26.48474121 1.3026123 C-21.11635867 1.21608266 -15.85442078 0.98491911 -10.52931213 0.28089905 C-7.02556256 -0.10816484 -3.52056952 -0.04289354 0 0 Z " fill="#389EBD" transform="translate(181.5625,292.9375)"/>
<path d="M0 0 C4.51765178 2.10304479 7.22042801 4.88211557 10 9 C11.54231005 14.00991991 12.03345032 19.25218116 10.1640625 24.22265625 C7.70350146 28.64010644 4.91565266 31.39979963 0.2421875 33.375 C-5.19516133 34.8906373 -10.66707003 35.00560068 -15.8125 32.5 C-19.7504209 29.83117209 -22.29454002 26.42661612 -24 22 C-24.95810606 16.08711686 -24.51123886 10.98369387 -21 6 C-15.56238234 -1.28372242 -8.54957783 -1.20084106 0 0 Z " fill="#F1A34A" transform="translate(307,375)"/>
<path d="M0 0 C1.08958008 0.00181274 1.08958008 0.00181274 2.20117188 0.00366211 C5.80324641 0.02986341 9.31252596 0.15382198 12.875 0.6875 C17.57265644 1.32687857 22.14674611 0.88497503 26.85913086 0.53588867 C32.22275519 0.15522025 37.560636 0.00833967 42.9375 0 C43.67476318 -0.00443115 44.41202637 -0.0088623 45.17163086 -0.01342773 C49.66286934 -0.00166923 53.92460731 0.45716049 58.375 1.125 C59.71762065 0.83130173 61.05196283 0.4971042 62.375 0.125 C66.07006822 -0.00465152 68.85715817 -0.04761394 72.375 1.125 C73.85186111 1.21747381 75.33275501 1.25499071 76.8125 1.25 C77.57433594 1.25257813 78.33617187 1.25515625 79.12109375 1.2578125 C81.30675199 1.21478038 81.30675199 1.21478038 83.06054688 0.625 C86.28190921 -0.070923 89.36586099 -0.00495553 92.66015625 -0.0078125 C93.35765488 -0.00876923 94.0551535 -0.00972595 94.77378845 -0.01071167 C96.24380585 -0.01139036 97.7138263 -0.00955778 99.18383789 -0.00537109 C101.43317382 -0.00001031 103.68231081 -0.0053307 105.93164062 -0.01171875 C107.36197961 -0.01105807 108.79231846 -0.00977712 110.22265625 -0.0078125 C111.52211182 -0.00668457 112.82156738 -0.00555664 114.16040039 -0.00439453 C117.375 0.125 117.375 0.125 120.375 1.125 C121.7667773 1.34055251 123.16331216 1.52693746 124.5625 1.6875 C125.820625 1.831875 127.07875 1.97625 128.375 2.125 C128.375 3.445 128.375 4.765 128.375 6.125 C82.505 6.125 36.635 6.125 -10.625 6.125 C-10.625 4.475 -10.625 2.825 -10.625 1.125 C-7.0281673 -0.07394423 -3.74239032 -0.02358289 0 0 Z " fill="#359CBD" transform="translate(469.625,295.875)"/>
<path d="M0 0 C2.84625 -0.0825 5.6925 -0.165 8.625 -0.25 C9.51010254 -0.28641602 10.39520508 -0.32283203 11.30712891 -0.36035156 C16.86179475 -0.43786434 19.70467861 0.44992364 24 4 C25.55950551 5.55950551 25.28196698 7.08877131 25.375 9.25 C25.35033382 13.11642324 25.12774815 13.83527212 22.625 17.0625 C20 19 20 19 18 19 C18.42152344 19.74765625 18.84304687 20.4953125 19.27734375 21.265625 C19.82519531 22.25046875 20.37304688 23.2353125 20.9375 24.25 C21.48277344 25.22453125 22.02804688 26.1990625 22.58984375 27.203125 C23.76610835 29.53610409 24.52101691 31.45350762 25 34 C20.70026064 35.05299739 20.70026064 35.05299739 18 34 C15.04065512 30.19512802 11 24.98196766 11 20 C9.68 20 8.36 20 7 20 C7 24.62 7 29.24 7 34 C4.69 34 2.38 34 0 34 C0 22.78 0 11.56 0 0 Z " fill="#F1A34C" transform="translate(198,375)"/>
<path d="M0 0 C8 0 8 0 9.97802734 1.72827148 C10.4261377 2.51790283 10.87424805 3.30753418 11.3359375 4.12109375 C11.84253906 4.97380859 12.34914063 5.82652344 12.87109375 6.70507812 C13.36738281 7.60677734 13.86367188 8.50847656 14.375 9.4375 C15.40006526 11.20910783 16.42854091 12.97874817 17.4609375 14.74609375 C17.90228027 15.53685303 18.34362305 16.3276123 18.79833984 17.14233398 C19.87260343 19.14801104 19.87260343 19.14801104 22 20 C22 13.4 22 6.8 22 0 C24.31 0 26.62 0 29 0 C29 11.22 29 22.44 29 34 C26.36 34 23.72 34 21 34 C20.70867187 33.38253906 20.41734375 32.76507813 20.1171875 32.12890625 C17.49300838 26.70725317 14.62116479 21.72758761 11.13671875 16.8125 C10 15 10 15 10 13 C9.34 13 8.68 13 8 13 C8 19.93 8 26.86 8 34 C5.36 34 2.72 34 0 34 C0 22.78 0 11.56 0 0 Z " fill="#F0AA5B" transform="translate(325,375)"/>
<path d="M0 0 C-0.33 0.99 -0.66 1.98 -1 3 C-1.97839844 2.98839844 -2.95679688 2.97679687 -3.96484375 2.96484375 C-5.27582031 2.95582031 -6.58679688 2.94679688 -7.9375 2.9375 C-9.86916016 2.92009766 -9.86916016 2.92009766 -11.83984375 2.90234375 C-14.60309958 2.92379097 -17.25998175 3.12799434 -19.99853516 3.48852539 C-25.72174111 4.14556941 -31.42788238 4.20921577 -37.18359375 4.28125 C-39.51497401 4.31900732 -41.84635422 4.35676783 -44.17773438 4.39453125 C-47.82737557 4.44836587 -51.47703677 4.50055991 -55.12670898 4.55224609 C-58.66657696 4.60382628 -62.20632056 4.66108268 -65.74609375 4.71875 C-67.39441444 4.73911316 -67.39441444 4.73911316 -69.07603455 4.7598877 C-70.08791336 4.77660522 -71.09979218 4.79332275 -72.14233398 4.81054688 C-73.03452133 4.82307495 -73.92670868 4.83560303 -74.84593201 4.84851074 C-77.04985718 4.86519347 -77.04985718 4.86519347 -79 6 C-80.33181486 6.09342787 -81.66816244 6.12629325 -83.00325012 6.12698364 C-83.84018906 6.12980347 -84.67712799 6.13262329 -85.53942871 6.13552856 C-86.91947083 6.13249222 -86.91947083 6.13249222 -88.32739258 6.12939453 C-89.29501022 6.13114685 -90.26262787 6.13289917 -91.25956726 6.13470459 C-94.47123996 6.1391202 -97.68285795 6.13618543 -100.89453125 6.1328125 C-103.12171947 6.13348579 -105.34890761 6.13445602 -107.57609558 6.13571167 C-112.25101418 6.13718838 -116.9259137 6.13503554 -121.60083008 6.13037109 C-127.5931771 6.12468373 -133.58547923 6.12794669 -139.57782459 6.13394356 C-144.18031654 6.13755833 -148.78279787 6.13640619 -153.38529015 6.13381577 C-155.59448947 6.13314852 -157.80368976 6.13396786 -160.01288795 6.13629532 C-163.10342585 6.13883572 -166.19389132 6.13496113 -169.28442383 6.12939453 C-170.19837921 6.13141876 -171.11233459 6.13344299 -172.0539856 6.13552856 C-176.16618944 6.12181232 -179.99005524 6.04214276 -184 5 C-184 3.68 -184 2.36 -184 1 C-183.10878134 1.00092179 -182.21756268 1.00184359 -181.29933739 1.00279331 C-159.61640208 1.02487537 -137.93346871 1.04142467 -116.25052452 1.05181217 C-105.76483125 1.05696897 -95.27914548 1.06399998 -84.79345703 1.07543945 C-75.65439303 1.08540507 -66.51533446 1.09185791 -57.37626517 1.09408849 C-52.53699357 1.0953924 -47.69773753 1.0984581 -42.85847092 1.10573006 C-38.30314057 1.11251985 -33.74783218 1.11461091 -29.19249725 1.11310768 C-27.5211818 1.11338268 -25.84986561 1.11537024 -24.17855453 1.11920547 C-21.89475614 1.12418893 -19.61104035 1.12298112 -17.32723999 1.12025452 C-15.41083238 1.12163721 -15.41083238 1.12163721 -13.45570946 1.12304783 C-8.89405035 0.96062033 -4.56989292 0 0 0 Z " fill="#56BDB2" transform="translate(189,291)"/>
<path d="M0 0 C2.84625 -0.103125 5.6925 -0.20625 8.625 -0.3125 C9.95265381 -0.38078003 9.95265381 -0.38078003 11.30712891 -0.45043945 C15.38491004 -0.52156888 18.22790855 -0.3116293 21.54296875 2.203125 C24.83666314 5.95238603 24.81339486 7.89646271 24.53515625 12.68359375 C24 15 24 15 21.625 17.625 C19 19 19 19 17 19 C17.42152344 19.66386719 17.84304687 20.32773437 18.27734375 21.01171875 C19.09912109 22.33623047 19.09912109 22.33623047 19.9375 23.6875 C20.48277344 24.55761719 21.02804688 25.42773438 21.58984375 26.32421875 C22.97167172 28.94624689 23.58480173 31.08310075 24 34 C21.69 34 19.38 34 17 34 C16.61328125 33.14535156 16.2265625 32.29070312 15.828125 31.41015625 C15.30734375 30.30542969 14.7865625 29.20070313 14.25 28.0625 C13.73953125 26.96035156 13.2290625 25.85820312 12.703125 24.72265625 C11.15483041 21.5472255 11.15483041 21.5472255 7 21 C7 25.29 7 29.58 7 34 C4.69 34 2.38 34 0 34 C0 22.78 0 11.56 0 0 Z " fill="#F2A24A" transform="translate(108,375)"/>
<path d="M0 0 C7 0 7 0 9.07983398 1.92773438 C9.62969971 2.80751953 10.17956543 3.68730469 10.74609375 4.59375 C11.35517578 5.54121094 11.96425781 6.48867188 12.59179688 7.46484375 C13.20087891 8.46644531 13.80996094 9.46804688 14.4375 10.5 C15.07365234 11.50160156 15.70980469 12.50320313 16.36523438 13.53515625 C17.93233672 16.00952838 19.4691309 18.50304846 21 21 C21.33 14.07 21.66 7.14 22 0 C24.31 0 26.62 0 29 0 C29 11.22 29 22.44 29 34 C26.36 34 23.72 34 21 34 C20.72027344 33.46632813 20.44054687 32.93265625 20.15234375 32.3828125 C17.24478537 26.97905448 13.98616093 22.01312758 10.35546875 17.06640625 C9 15 9 15 9 13 C8.34 13 7.68 13 7 13 C7 19.93 7 26.86 7 34 C4.69 34 2.38 34 0 34 C0 22.78 0 11.56 0 0 Z " fill="#F1A44D" transform="translate(501,375)"/>
<path d="M0 0 C3.155625 -0.12375 6.31125 -0.2475 9.5625 -0.375 C10.5429126 -0.42962402 11.5233252 -0.48424805 12.53344727 -0.54052734 C17.2726829 -0.62990155 20.32175179 -0.29029593 24.08203125 2.7421875 C27.32435641 5.98978629 28.04702342 8.29437666 28.20703125 12.8203125 C27.79730036 17.13408305 26.16786115 19.94162583 23 22.8125 C19.86654349 24.6729898 17.33729942 25.12295957 13.76953125 25.09765625 C13.04612549 25.09515869 12.32271973 25.09266113 11.57739258 25.09008789 C10.66497803 25.08098389 9.75256348 25.07187988 8.8125 25.0625 C5.904375 25.041875 2.99625 25.02125 0 25 C0 16.75 0 8.5 0 0 Z " fill="#F3F4F4" transform="translate(303,169)"/>
<path d="M0 0 C4.51724159 1.95236713 8.57423536 4.60330159 11 9 C11 9.66 11 10.32 11 11 C4.4865323 11.37577698 4.4865323 11.37577698 2.078125 9.515625 C-1.58261863 6.84575935 -5.66231641 7.39474182 -10 8 C-12.85222791 9.10205377 -12.85222791 9.10205377 -14 12 C-14.73646188 17.09255552 -14.67497691 21.4352808 -12.625 26.1875 C-9.15540364 28.58317367 -6.57440545 28.51920007 -2.4375 28.46875 C0.48258815 27.90719459 1.88387508 27.07833697 4 25 C4.33 23.68 4.66 22.36 5 21 C1.37 21 -2.26 21 -6 21 C-6 19.35 -6 17.7 -6 16 C-0.06 16 5.88 16 12 16 C12 25.5 12 25.5 8 30 C2.93509967 34.51669935 -1.70779145 35.77350985 -8.453125 35.41015625 C-13.04013195 34.67145114 -15.51245301 32.7526152 -18.46875 29.26953125 C-22.06922691 24.25886756 -22.92413907 20.06532653 -22 14 C-21.08777831 8.74752351 -19.21388621 5.72617829 -14.9375 2.5 C-9.9816454 -0.43650475 -5.64463393 -1.22512151 0 0 Z " fill="#F1A74F" transform="translate(559,374)"/>
<path d="M0 0 C4.516875 -0.1546875 4.516875 -0.1546875 9.125 -0.3125 C10.06230957 -0.35802002 10.99961914 -0.40354004 11.96533203 -0.45043945 C16.26555928 -0.52142297 19.14069839 -0.3837988 22.5546875 2.39453125 C26.50324465 6.60169997 26.39224481 9.67749358 26.35546875 15.296875 C26 18 26 18 23.6875 21.0625 C17.87413058 25.25353377 17.87413058 25.25353377 13.76953125 25.1953125 C13.04612549 25.19031738 12.32271973 25.18532227 11.57739258 25.18017578 C10.66497803 25.16196777 9.75256348 25.14375977 8.8125 25.125 C5.904375 25.08375 2.99625 25.0425 0 25 C0 16.75 0 8.5 0 0 Z " fill="#F6F7F6" transform="translate(545,169)"/>
<path d="M0 0 C46.53 0 93.06 0 141 0 C141 5.28 141 10.56 141 16 C140.67 16 140.34 16 140 16 C140 12.04 140 8.08 140 4 C94.13 4 48.26 4 1 4 C0.67 5.32 0.34 6.64 0 8 C0 5.36 0 2.72 0 0 Z " fill="#85D7B1" transform="translate(458,287)"/>
<path d="M0 0 C2.31 0 4.62 0 7 0 C9.88519979 6.74064375 12.6380042 13.52428098 15.25 20.375 C15.50797363 21.04015625 15.76594727 21.7053125 16.03173828 22.390625 C17.48558157 26.24432537 18.4689094 29.91566035 19 34 C16.69 34 14.38 34 12 34 C11.34 32.02 10.68 30.04 10 28 C5.71 28 1.42 28 -3 28 C-3.66 29.98 -4.32 31.96 -5 34 C-7.31 34 -9.62 34 -12 34 C-10.69314509 27.51773958 -8.8971183 21.49353826 -6.5625 15.3125 C-6.26279297 14.49716797 -5.96308594 13.68183594 -5.65429688 12.84179688 C-4.00517807 8.41672102 -2.21004946 4.18354928 0 0 Z " fill="#F1A44A" transform="translate(82,375)"/>
<path d="M0 0 C2.63819508 2.27007483 4.7230579 4.44139232 6.6875 7.3125 C6.6875 7.9725 6.6875 8.6325 6.6875 9.3125 C0.28391256 9.81474215 0.28391256 9.81474215 -2.6875 7.3125 C-6.00847896 4.78223032 -8.13334491 4.71090345 -12.21875 4.94921875 C-14.47005331 5.23307268 -14.47005331 5.23307268 -16.875 6.625 C-19.23948232 11.04555391 -18.99960917 15.4231758 -18.3125 20.3125 C-17.13572797 23.64033723 -17.13572797 23.64033723 -14.3125 25.3125 C-11.18956304 25.95340124 -8.43609276 25.95294888 -5.3125 25.3125 C-3.61928061 24.01305256 -1.94854196 22.68323786 -0.3125 21.3125 C3 21.5625 3 21.5625 5.6875 22.3125 C5.35710927 25.39614682 4.71092865 26.29097097 2.375 28.4375 C-3.48988778 32.52928217 -8.19592985 33.16855119 -15.3125 32.3125 C-18.8125 30.5 -18.8125 30.5 -21.3125 28.3125 C-21.89 27.8175 -22.4675 27.3225 -23.0625 26.8125 C-26.98538963 22.10503244 -26.72561535 17.36599225 -26.6328125 11.453125 C-26.09980934 6.22709398 -24.16876736 4.10689178 -20.4375 0.5 C-14.54833255 -2.79100534 -5.94248236 -3.02730233 0 0 Z " fill="#F3A64E" transform="translate(58.3125,376.6875)"/>
<path d="M0 0 C2.31 0 4.62 0 7 0 C7.01981934 0.74685059 7.03963867 1.49370117 7.06005859 2.26318359 C7.15508211 5.63415605 7.26485259 9.00448929 7.375 12.375 C7.4059375 13.550625 7.436875 14.72625 7.46875 15.9375 C7.50742187 17.05898438 7.54609375 18.18046875 7.5859375 19.3359375 C7.6173584 20.37282715 7.6487793 21.4097168 7.68115234 22.47802734 C7.75954472 25.16809835 7.75954472 25.16809835 10 27 C12.21072977 27.24253813 12.21072977 27.24253813 14.625 27.125 C15.44226563 27.10695313 16.25953125 27.08890625 17.1015625 27.0703125 C18.04128906 27.03550781 18.04128906 27.03550781 19 27 C20.01587978 23.95236066 20.19804406 21.65281033 20.31640625 18.45703125 C20.35830078 17.38388672 20.40019531 16.31074219 20.44335938 15.20507812 C20.48267578 14.08552734 20.52199219 12.96597656 20.5625 11.8125 C20.60568359 10.68134766 20.64886719 9.55019531 20.69335938 8.38476562 C20.79949099 5.58996646 20.90154385 2.79507838 21 0 C22.98 0 24.96 0 27 0 C27.05805933 4.24994263 27.09361654 8.49978324 27.125 12.75 C27.15013672 14.55984375 27.15013672 14.55984375 27.17578125 16.40625 C27.18222656 17.56640625 27.18867188 18.7265625 27.1953125 19.921875 C27.20578613 20.99018555 27.21625977 22.05849609 27.22705078 23.15917969 C26.88243884 27.47090499 25.71812997 29.3371108 22.5625 32.25 C17.63655506 34.66976243 13.39322706 34.9295904 8 34 C4.58454129 32.34975856 2.54892829 30.11560565 0.85986328 26.68286133 C-0.09017667 23.71863958 -0.22854712 21.36915602 -0.1953125 18.26171875 C-0.18886719 17.19501953 -0.18242187 16.12832031 -0.17578125 15.02929688 C-0.15902344 13.92650391 -0.14226562 12.82371094 -0.125 11.6875 C-0.11597656 10.56537109 -0.10695313 9.44324219 -0.09765625 8.28710938 C-0.07414486 5.52452091 -0.04128155 2.76237068 0 0 Z " fill="#F0A44F" transform="translate(395,375)"/>
<path d="M0 0 C2.87568068 1.84917188 5.1048805 4.32454041 6.85546875 7.2421875 C6.85546875 7.9021875 6.85546875 8.5621875 6.85546875 9.2421875 C0.30673506 9.61287054 0.30673506 9.61287054 -1.89453125 7.8046875 C-2.30703125 7.2890625 -2.71953125 6.7734375 -3.14453125 6.2421875 C-6.78235757 5.02957873 -9.32189124 4.84674198 -13.14453125 5.2421875 C-16.15736759 7.27257721 -17.71180032 8.86554641 -18.8125 12.3671875 C-19.55873613 16.74116561 -19.41483742 18.73761599 -17.26953125 22.7421875 C-15.75352849 24.53506728 -15.75352849 24.53506728 -14.14453125 26.2421875 C-7.80456357 26.7016396 -7.80456357 26.7016396 -2.14453125 24.2421875 C-1.81453125 23.5821875 -1.48453125 22.9221875 -1.14453125 22.2421875 C1.16546875 22.2421875 3.47546875 22.2421875 5.85546875 22.2421875 C5.56532663 25.72389298 5.12790551 26.98447705 2.54296875 29.4296875 C-3.1913616 33.29702658 -7.28640024 33.76715844 -14.14453125 33.2421875 C-19.16175884 32.01575409 -22.52497169 28.82211746 -25.2578125 24.46875 C-27.18670771 19.62526864 -26.8479313 14.32971024 -26.14453125 9.2421875 C-21.29110931 -1.07921306 -10.62706167 -3.75528227 0 0 Z " fill="#F2A34A" transform="translate(270.14453125,375.7578125)"/>
<path d="M0 0 C2.74545615 1.39190791 3.33483909 2.28640445 5 5 C5 6.32 5 7.64 5 9 C2.69 9 0.38 9 -2 9 C-2 8.01 -2 7.02 -2 6 C-4.97 6 -7.94 6 -11 6 C-10.75004507 8.93630876 -10.75004507 8.93630876 -9 12 C-6.55778505 13.24513642 -4.07530409 14.10217508 -1.4921875 15.015625 C1.98480811 16.38898377 3.91002553 17.90107234 6 21 C6 24.66202188 5.48090099 27.06350861 3.8125 30.3125 C0.36103209 33.52593564 -3.55379848 34.11380033 -8.125 34.25 C-13.55778894 33.89949749 -13.55778894 33.89949749 -16 32 C-18.11057699 29.06026776 -19 27.65351863 -19 24 C-15.625 23.8125 -15.625 23.8125 -12 24 C-11.34 24.99 -10.68 25.98 -10 27 C-8.02252878 27.36297936 -8.02252878 27.36297936 -5.875 27.1875 C-4.59625 27.125625 -3.3175 27.06375 -2 27 C-2 25.35 -2 23.7 -2 22 C-2.83144531 21.67386719 -3.66289062 21.34773438 -4.51953125 21.01171875 C-5.60621094 20.57472656 -6.69289063 20.13773437 -7.8125 19.6875 C-8.89144531 19.25824219 -9.97039062 18.82898438 -11.08203125 18.38671875 C-14.51787768 16.75388678 -16.30896012 15.38207976 -18 12 C-18.46398201 7.90149228 -18.38430032 5.66896723 -16.3125 2.0625 C-11.11808178 -1.1717604 -5.94945551 -0.95983533 0 0 Z " fill="#F1AA56" transform="translate(381,375)"/>
<path d="M0 0 C61.38 0 122.76 0 186 0 C186 5.28 186 10.56 186 16 C185.67 16 185.34 16 185 16 C185 11.05 185 6.1 185 1 C183.700625 1.144375 182.40125 1.28875 181.0625 1.4375 C180.33160156 1.51871094 179.60070312 1.59992188 178.84765625 1.68359375 C176.98859771 1.81886614 176.98859771 1.81886614 176 3 C174.27976355 3.09955429 172.55538959 3.12799746 170.83227539 3.12939453 C169.70355515 3.13250137 168.5748349 3.13560822 167.41191101 3.1388092 C166.15320694 3.13683029 164.89450287 3.13485138 163.59765625 3.1328125 C162.25246655 3.13387443 160.90727708 3.13526187 159.56208801 3.13694763 C155.8454813 3.13980448 152.12891632 3.1352624 148.41231537 3.12877274 C146.06713304 3.12500744 143.72195474 3.12293286 141.37677002 3.12130737 C112.31375697 3.09775355 83.2521547 2.87255368 54.19059372 2.59383392 C50.87244347 2.56247584 47.55428213 2.53269163 44.2361145 2.50323486 C38.97381281 2.45604141 33.71158711 2.40365952 28.44937706 2.34718513 C26.49663516 2.3268607 24.54387666 2.30806599 22.59110451 2.29089165 C19.90555618 2.26683899 17.22013737 2.23686181 14.53466797 2.20532227 C13.75283174 2.19956743 12.9709955 2.1938126 12.16546726 2.18788338 C8.01355482 2.13210092 4.07482158 1.80480562 0 1 C0 0.67 0 0.34 0 0 Z " fill="#88DCAA" transform="translate(4,287)"/>
<path d="M0 0 C6.6 0 13.2 0 20 0 C20 1.65 20 3.3 20 5 C15.71 5 11.42 5 7 5 C7 7.97 7 10.94 7 14 C10.3 14 13.6 14 17 14 C17 15.65 17 17.3 17 19 C13.37 19 9.74 19 6 19 C6 21.97 6 24.94 6 28 C10.62 28 15.24 28 20 28 C20 29.98 20 31.96 20 34 C13.4 34 6.8 34 0 34 C0 22.78 0 11.56 0 0 Z " fill="#F0A552" transform="translate(170,375)"/>
<path d="M0 0 C2.84124653 1.23532458 4.42097859 2.2555439 6.3125 4.6875 C7.78309771 9.63405593 7.52061873 13.66126613 5.6875 18.375 C4 21 4 21 1 23 C-2.38931519 23.53753747 -5.61270886 23.56084657 -9 23 C-11.87399438 20.33629789 -13.81239191 17.73768148 -14.23828125 13.79296875 C-14.43980708 6.71835156 -14.43980708 6.71835156 -12.125 2.9375 C-8.38820913 -0.46957403 -4.89292444 -0.52591894 0 0 Z " fill="#FCFBF7" transform="translate(304,380)"/>
<path d="M0 0 C0.72235745 -0.00172966 1.44471491 -0.00345932 2.18896198 -0.00524139 C4.61281367 -0.00962909 7.03659651 -0.00663801 9.46044922 -0.00341797 C11.17179892 -0.00443256 12.88314846 -0.0057714 14.59449768 -0.00741577 C19.19847742 -0.0101263 23.80242372 -0.00563717 28.40639877 0.00082397 C31.25226696 0.00437846 34.09813012 0.00600917 36.94400024 0.00708008 C68.35228564 0.02178195 99.74056854 0.35698775 131.14013672 1.12939453 C131.47013672 2.11939453 131.80013672 3.10939453 132.14013672 4.12939453 C130.5777364 4.15669861 129.01519402 4.17592679 127.45263672 4.19189453 C126.58251953 4.20349609 125.71240234 4.21509766 124.81591797 4.22705078 C122.14013672 4.12939453 122.14013672 4.12939453 119.87524414 3.6315918 C116.76706296 3.06089389 113.86268594 2.99977861 110.70263672 2.99658203 C109.47802734 2.99529297 108.25341797 2.99400391 106.99169922 2.99267578 C105.72068359 2.99654297 104.44966797 3.00041016 103.14013672 3.00439453 C101.86912109 3.00052734 100.59810547 2.99666016 99.28857422 2.99267578 C97.45166016 2.99460937 97.45166016 2.99460937 95.57763672 2.99658203 C94.46259766 2.99770996 93.34755859 2.99883789 92.19873047 3 C89.38944805 3.11884736 86.87712177 3.52031647 84.14013672 4.12939453 C82.57949568 4.21623871 81.01568316 4.25970199 79.45263672 4.25439453 C78.68564453 4.25697266 77.91865234 4.25955078 77.12841797 4.26220703 C75.14013672 4.12939453 75.14013672 4.12939453 73.14013672 3.12939453 C69.24675936 2.8693261 65.39377027 2.85420668 61.57763672 3.69189453 C58.72645411 4.20364526 56.29027919 3.75732697 53.44311523 3.3762207 C49.42947589 2.94605115 45.4227691 2.98311109 41.39013672 3.00439453 C40.07178833 3.00620728 40.07178833 3.00620728 38.72680664 3.00805664 C32.98794421 3.04238314 27.35131942 3.40202626 21.64013672 3.97314453 C18.60949897 4.16255939 15.84558967 3.82135611 12.85107422 3.38720703 C6.32000456 2.76609666 -0.30575033 3.06167121 -6.85986328 3.12939453 C-6.85986328 4.77939453 -6.85986328 6.42939453 -6.85986328 8.12939453 C39.01013672 8.12939453 84.88013672 8.12939453 132.14013672 8.12939453 C132.14013672 8.45939453 132.14013672 8.78939453 132.14013672 9.12939453 C85.94013672 9.12939453 39.74013672 9.12939453 -7.85986328 9.12939453 C-7.85986328 0.00478673 -7.85986328 0.00478673 0 0 Z " fill="#5CB3C2" transform="translate(465.85986328125,293.87060546875)"/>
<path d="M0 0 C6.27 0 12.54 0 19 0 C19 1.65 19 3.3 19 5 C14.71 5 10.42 5 6 5 C6 7.97 6 10.94 6 14 C9.96 14 13.92 14 18 14 C18 15.65 18 17.3 18 19 C14.04 19 10.08 19 6 19 C6 22.3 6 25.6 6 29 C10.29 29 14.58 29 19 29 C19 30.65 19 32.3 19 34 C12.73 34 6.46 34 0 34 C0 22.78 0 11.56 0 0 Z " fill="#F19D40" transform="translate(142,375)"/>
<path d="M0 0 C15.84 0 31.68 0 48 0 C47.67 0.66 47.34 1.32 47 2 C31.82 2 16.64 2 1 2 C1.33 3.65 1.66 5.3 2 7 C2.08622681 9.39107901 2.11771564 11.78437237 2.11352539 14.17700195 C2.11367142 14.87998917 2.11381744 15.58297638 2.1139679 16.30726624 C2.11327441 18.61763659 2.10550857 20.92792508 2.09765625 23.23828125 C2.09579006 24.84539241 2.09436711 26.45250415 2.09336853 28.05961609 C2.08955915 32.27968937 2.07974239 36.49972797 2.06866455 40.7197876 C2.05841643 45.02998384 2.05386363 49.3401857 2.04882812 53.65039062 C2.03811866 62.10027807 2.0205347 70.55013072 2 79 C7.94 79 13.88 79 20 79 C20 79.66 20 80.32 20 81 C15 82 15 82 0 82 C0 54.94 0 27.88 0 0 Z " fill="#06111C" transform="translate(225,156)"/>
<path d="M0 0 C7.92 0 15.84 0 24 0 C24 1.65 24 3.3 24 5 C21.36 5 18.72 5 16 5 C16 14.57 16 24.14 16 34 C14.02 34 12.04 34 10 34 C10 24.43 10 14.86 10 5 C6.7 5 3.4 5 0 5 C0 3.35 0 1.7 0 0 Z " fill="#F2A44B" transform="translate(453,375)"/>
<path d="M0 0 C2.05078125 0.03255208 4.1015625 0.06510417 6.15234375 0.09765625 C6.15234375 1.08765625 6.15234375 2.07765625 6.15234375 3.09765625 C-2.38045982 4.79653156 -10.54236805 5.38185044 -19.23071289 5.34057617 C-21.15336975 5.34342369 -21.15336975 5.34342369 -23.11486816 5.34632874 C-26.60198217 5.3511334 -30.08896604 5.34356734 -33.57606435 5.33337569 C-37.27388776 5.32447635 -40.97170847 5.32635521 -44.66954041 5.32673645 C-50.90072749 5.32580214 -57.13186568 5.31716585 -63.36303711 5.3034668 C-69.68661467 5.28961174 -76.01014729 5.28244001 -82.33374023 5.28295898 C-149.66295869 5.288029 -149.66295869 5.288029 -177.84765625 4.09765625 C-177.84765625 3.76765625 -177.84765625 3.43765625 -177.84765625 3.09765625 C-176.63100784 3.08734879 -175.41435944 3.07704132 -174.1608429 3.06642151 C-162.69847332 2.96869094 -151.23615807 2.86595709 -139.77387714 2.75831699 C-133.88092721 2.70313845 -127.98797227 2.64972649 -122.0949707 2.6003418 C-116.40856312 2.55262358 -110.72221529 2.50027799 -105.03587914 2.4447155 C-102.8657702 2.42432576 -100.69564491 2.40560713 -98.52550697 2.38858223 C-95.48740347 2.36446343 -92.44941228 2.33441899 -89.41137695 2.30297852 C-88.06378296 2.29434532 -88.06378296 2.29434532 -86.68896484 2.28553772 C-82.58078916 2.237172 -78.87575189 1.94322179 -74.84765625 1.09765625 C-72.46177783 1.01626728 -70.0737692 0.99011697 -67.68652344 1 C-66.98514252 1.00146027 -66.2837616 1.00292053 -65.56112671 1.00442505 C-64.04589884 1.00821659 -62.53067535 1.01431779 -61.01546478 1.02249146 C-58.62042859 1.035285 -56.22544792 1.04177762 -53.8303833 1.04663086 C-48.75278258 1.05803712 -43.67522795 1.07730286 -38.59765625 1.09765625 C-32.7000894 1.12122544 -26.8025481 1.14160688 -20.90494537 1.15359497 C-18.54000911 1.16009992 -16.17515167 1.17260365 -13.8102417 1.18530273 C-12.37056549 1.18893282 -10.93088854 1.19228485 -9.49121094 1.1953125 C-8.22944031 1.20054932 -6.96766968 1.20578613 -5.66766357 1.21118164 C-2.69729825 1.09160327 -2.63065335 0.13904087 0 0 Z " fill="#64CAAC" transform="translate(182.84765625,287.90234375)"/>
<path d="M0 0 C1.98 0 3.96 0 6 0 C6 9.57 6 19.14 6 29 C9.3 29 12.6 29 16 29 C16 30.65 16 32.3 16 34 C10.72 34 5.44 34 0 34 C0 22.78 0 11.56 0 0 Z " fill="#F0A44A" transform="translate(432,375)"/>
<path d="M0 0 C7 0 7 0 9 1.75 C10 4 10 4 9.875 6.1875 C9.58625 6.785625 9.2975 7.38375 9 8 C8.01 8.33 7.02 8.66 6 9 C6 16.59 6 24.18 6 32 C4.02 32 2.04 32 0 32 C0 21.44 0 10.88 0 0 Z " fill="#EE9A3A" transform="translate(326,376)"/>
<path d="M0 0 C1.98 0 3.96 0 6 0 C6 11.22 6 22.44 6 34 C4.02 34 2.04 34 0 34 C0 22.78 0 11.56 0 0 Z " fill="#EF9E45" transform="translate(485,375)"/>
<path d="M0 0 C0 2.31 0 4.62 0 7 C-0.66 5.68 -1.32 4.36 -2 3 C-2.37125 3.639375 -2.7425 4.27875 -3.125 4.9375 C-5.60655974 7.66721571 -7.40685722 7.56002333 -11 8 C-13.78937229 9.0143172 -15.0037231 10.00418849 -17 12.25 C-21.00044147 16.46430155 -26.70686027 18.80583524 -32 21 C-32.99 21 -33.98 21 -35 21 C-35.77112541 25.72314313 -36.09764874 30.21521178 -36 35 C-36.33 35 -36.66 35 -37 35 C-37.33 45.89 -37.66 56.78 -38 68 C-38.33 68 -38.66 68 -39 68 C-39 52.16 -39 36.32 -39 20 C-31.67008352 15.99358602 -24.33749118 11.99247685 -17 8 C-16.18096191 7.55333984 -15.36192383 7.10667969 -14.51806641 6.64648438 C-12.43108682 5.50986227 -10.3412096 4.37881537 -8.25 3.25 C-7.63761475 2.91548828 -7.02522949 2.58097656 -6.39428711 2.23632812 C-2.23002772 0 -2.23002772 0 0 0 Z " fill="#A2DA99" transform="translate(271,78)"/>
<path d="M0 0 C4.93731454 1.46290801 4.93731454 1.46290801 6.375 4 C7.02588557 8.39347757 6.84938867 10.30998011 4.3125 14 C1.375 16 1.375 16 -2.25 16.0625 C-5.625 15 -5.625 15 -7.5625 13.3125 C-8.9863395 10.2135552 -9.17653827 8.37817188 -8.625 5 C-5.91953265 1.14675862 -4.77773264 0 0 0 Z " fill="#71CB97" transform="translate(354.625,4)"/>
<path d="M0 0 C0.72251953 0.00451172 1.44503906 0.00902344 2.18945312 0.01367188 C3.93883944 0.02525721 5.68818199 0.04318238 7.4375 0.0625 C7.4375 2.3725 7.4375 4.6825 7.4375 7.0625 C6.7775 7.0625 6.1175 7.0625 5.4375 7.0625 C5.4375 6.0725 5.4375 5.0825 5.4375 4.0625 C3.4575 4.3925 1.4775 4.7225 -0.5625 5.0625 C-0.5625 4.4025 -0.5625 3.7425 -0.5625 3.0625 C-1.34625 3.578125 -2.13 4.09375 -2.9375 4.625 C-8.29662431 6.75016998 -13.2126876 5.89392826 -18.734375 4.5234375 C-23.06481942 3.81764683 -27.37045247 3.91874391 -31.75 3.9375 C-32.66458984 3.93363281 -33.57917969 3.92976563 -34.52148438 3.92578125 C-35.83149414 3.92771484 -35.83149414 3.92771484 -37.16796875 3.9296875 C-37.96356201 3.93081543 -38.75915527 3.93194336 -39.57885742 3.93310547 C-41.63805521 3.9385923 -41.63805521 3.9385923 -43.5625 5.0625 C-46.28133684 5.16189834 -48.96906749 5.20136955 -51.6875 5.1875 C-52.42226562 5.19136719 -53.15703125 5.19523437 -53.9140625 5.19921875 C-58.87914537 5.19047741 -63.64721773 4.76468318 -68.5625 4.0625 C-68.5625 3.4025 -68.5625 2.7425 -68.5625 2.0625 C-67.94355362 2.05219254 -67.32460724 2.04188507 -66.68690491 2.03126526 C-60.21361936 1.92263355 -53.74045721 1.80808589 -47.26733398 1.69018555 C-44.85525101 1.64701736 -42.44314104 1.60533045 -40.03100586 1.56518555 C-36.55314007 1.50704166 -33.07540795 1.44347682 -29.59765625 1.37890625 C-28.52854507 1.36219376 -27.4594339 1.34548126 -26.35792542 1.32826233 C-21.03632939 1.22424171 -15.81506466 0.97343818 -10.5357666 0.27966309 C-7.02951132 -0.10620936 -3.52278517 -0.04292053 0 0 Z " fill="#42AEB7" transform="translate(181.5625,292.9375)"/>
<path d="M0 0 C2.74545615 1.39190791 3.33483909 2.28640445 5 5 C5 6.32 5 7.64 5 9 C2.69 9 0.38 9 -2 9 C-2 8.01 -2 7.02 -2 6 C-6.455 6.495 -6.455 6.495 -11 7 C-11.33 8.32 -11.66 9.64 -12 11 C-12.66 11 -13.32 11 -14 11 C-14 12.32 -14 13.64 -14 15 C-14.99 14.67 -15.98 14.34 -17 14 C-18.56935594 10.86128812 -18.35201103 8.46144178 -18 5 C-14.10648564 -1.77759907 -6.95331289 -1.12178928 0 0 Z " fill="#F19F43" transform="translate(381,375)"/>
<path d="M0 0 C2.5 1.5625 2.5 1.5625 4 4 C4 7.77684879 3.78395245 10.03513544 1.375 13 C-2.07663304 14.45331917 -4.42809484 13.92604949 -8 13 C-10.46324069 9.30513897 -10.38991688 7.36706908 -10 3 C-7.7773391 -1.05308751 -4.20075589 -0.5158823 0 0 Z " fill="#6ACDD9" transform="translate(293,39)"/>
<path d="M0 0 C3.375 0.875 3.375 0.875 5.375 2.875 C5.93141422 9.88581917 5.93141422 9.88581917 4.25 12.875 C1.42980125 14.379106 -0.48110056 14.32412849 -3.625 13.875 C-6 12.25 -6 12.25 -7.625 9.875 C-8.23475382 6.21647708 -8.07043026 4.56987121 -6.0625 1.4375 C-3.625 -0.125 -3.625 -0.125 0 0 Z " fill="#86D18B" transform="translate(216.625,89.125)"/>
<path d="M0 0 C3.76890749 0.51632375 7.37723899 0.67575838 11.17944336 0.72253418 C11.88272263 0.73243378 12.58600189 0.74233337 13.31059265 0.75253296 C15.6100236 0.78384603 17.90947512 0.80878444 20.20898438 0.83361816 C21.81324263 0.85421385 23.41749578 0.87521097 25.02174377 0.89659119 C29.2252893 0.95154201 33.4288816 1.00106925 37.63250732 1.04943848 C41.92952592 1.09985173 46.22647738 1.15543388 50.5234375 1.21057129 C58.94069829 1.31782228 67.35801559 1.41933935 75.77539062 1.51721191 C73.77539062 3.51721191 73.77539062 3.51721191 71.96755791 3.76330757 C70.86417171 3.76054219 70.86417171 3.76054219 69.73849487 3.75772095 C68.89433014 3.76047028 68.05016541 3.7632196 67.18041992 3.76605225 C66.25253662 3.75886169 65.32465332 3.75167114 64.36865234 3.7442627 C63.39300323 3.74455475 62.41735413 3.7448468 61.41213989 3.74514771 C58.17636322 3.74375059 54.94081474 3.72817142 51.70507812 3.71252441 C49.46591315 3.70879564 47.22674654 3.70594803 44.98757935 3.70394897 C39.08562743 3.69630184 33.18377348 3.67664407 27.28186035 3.65454102 C21.26279018 3.63410584 15.24370422 3.62495225 9.22460938 3.61486816 C-2.59183999 3.5933992 -14.40821655 3.55925024 -26.22460938 3.51721191 C-26.55460937 2.85721191 -26.88460938 2.19721191 -27.22460938 1.51721191 C-23.37158244 1.14985014 -19.51710947 0.80070208 -15.66210938 0.45471191 C-14.57607422 0.35094238 -13.49003906 0.24717285 -12.37109375 0.14025879 C-11.31083984 0.04680176 -10.25058594 -0.04665527 -9.15820312 -0.14294434 C-8.18939209 -0.23197021 -7.22058105 -0.32099609 -6.22241211 -0.41271973 C-3.22460938 -0.48278809 -3.22460938 -0.48278809 0 0 Z " fill="#4AB1B6" transform="translate(36.224609375,293.4827880859375)"/>
<path d="M0 0 C0 2.31 0 4.62 0 7 C-0.66 5.68 -1.32 4.36 -2 3 C-11.32710837 7.42094154 -20.26110914 12.43203127 -29.02587891 17.87988281 C-31 19 -31 19 -33.03271484 19.73730469 C-35.29642751 20.51540522 -35.29642751 20.51540522 -38 23 C-39.09446386 27.29925914 -38.98619222 31.58316878 -39 36 C-39.04404387 37.44630762 -39.09390385 38.89244731 -39.14892578 40.33837891 C-39.32326602 44.9956824 -39.44531855 49.65346101 -39.5625 54.3125 C-39.60582289 55.93946106 -39.64944084 57.56641429 -39.69335938 59.19335938 C-39.79896531 63.12882453 -39.90061064 67.06437315 -40 71 C-40.33 71 -40.66 71 -41 71 C-41.25394067 64.13231575 -41.42881781 57.26584341 -41.54931641 50.39453125 C-41.59955103 48.05845916 -41.66775544 45.72270066 -41.75439453 43.38769531 C-41.87599112 40.02590719 -41.93245882 36.66827599 -41.9765625 33.3046875 C-42.02817535 32.26384003 -42.07978821 31.22299255 -42.13296509 30.15060425 C-42.13529412 27.12699822 -42.02728905 24.8476799 -41 22 C-37.97786113 19.24549996 -34.70685351 17.66221832 -31 16 C-29.47169299 15.15927864 -27.94945926 14.30727809 -26.4375 13.4375 C-24.95916955 12.6234795 -23.47999622 11.81098795 -22 11 C-16.18306362 7.80101684 -10.44569976 4.53499702 -4.84765625 0.9609375 C-3 0 -3 0 0 0 Z " fill="#A6DB8B" transform="translate(359,29)"/>
<path d="M0 0 C0.99 0.33 1.98 0.66 3 1 C3.99 0.67 4.98 0.34 6 0 C6.66 0.33 7.32 0.66 8 1 C8 1.99 8 2.98 8 4 C8.66 4 9.32 4 10 4 C10 4.66 10 5.32 10 6 C-7.49 6 -24.98 6 -43 6 C-43 5.67 -43 5.34 -43 5 C-42.23856689 4.98541748 -41.47713379 4.97083496 -40.69262695 4.95581055 C-37.23208112 4.88119459 -33.77248555 4.78457741 -30.3125 4.6875 C-29.11431641 4.66494141 -27.91613281 4.64238281 -26.68164062 4.61914062 C-25.52470703 4.58369141 -24.36777344 4.54824219 -23.17578125 4.51171875 C-22.11270752 4.48553467 -21.04963379 4.45935059 -19.9543457 4.43237305 C-16.65273574 3.94917734 -14.77070882 2.79927037 -12 1 C-9.6484375 0.99609375 -9.6484375 0.99609375 -7.375 1.4375 C-3.51513684 2.19475961 -3.51513684 2.19475961 0 0 Z " fill="#3097BC" transform="translate(179,296)"/>
<path d="M0 0 C16.5 0 33 0 50 0 C50 4.29 50 8.58 50 13 C49.34 13 48.68 13 48 13 C48 9.37 48 5.74 48 2 C32.82 2 17.64 2 2 2 C2.33 3.65 2.66 5.3 3 7 C2.34 7.66 1.68 8.32 1 9 C0.67 6.03 0.34 3.06 0 0 Z " fill="#09141E" transform="translate(375,156)"/>
<path d="M0 0 C10.56 0 21.12 0 32 0 C32 0.99 32 1.98 32 3 C26.12848788 5.03213757 20.87118534 5.27294729 14.6875 5.1875 C13.78193359 5.18685547 12.87636719 5.18621094 11.94335938 5.18554688 C5.28167517 5.14083759 5.28167517 5.14083759 3 4 C3 3.34 3 2.68 3 2 C2.01 2 1.02 2 0 2 C0 1.34 0 0.68 0 0 Z " fill="#3B9FBC" transform="translate(555,296)"/>
<path d="M0 0 C0.33 0 0.66 0 1 0 C1.06058594 0.65226562 1.12117187 1.30453125 1.18359375 1.9765625 C1.64464042 10.22860703 1.64464042 10.22860703 4 18 C6.10409639 18.02701408 8.20829178 18.04640223 10.3125 18.0625 C11.48425781 18.07410156 12.65601563 18.08570313 13.86328125 18.09765625 C17.03059195 18.14899898 17.03059195 18.14899898 20 17 C20.33 17.33 20.66 17.66 21 18 C25.65088715 18.30523962 25.65088715 18.30523962 30 17 C30 17.66 30 18.32 30 19 C31.98 18.67 33.96 18.34 36 18 C35.505 16.515 35.505 16.515 35 15 C35.99 14.67 36.98 14.34 38 14 C38 16.31 38 18.62 38 21 C25.46 21 12.92 21 0 21 C0 14.07 0 7.14 0 0 Z " fill="#1F8FA1" transform="translate(233,125)"/>
<path d="M0 0 C6.27 0 12.54 0 19 0 C19 1.65 19 3.3 19 5 C14.71 5 10.42 5 6 5 C6.99 4.01 7.98 3.02 9 2 C6.36 1.67 3.72 1.34 1 1 C1 11.56 1 22.12 1 33 C6.61 33 12.22 33 18 33 C18.33 31.68 18.66 30.36 19 29 C19 30.65 19 32.3 19 34 C12.73 34 6.46 34 0 34 C0 22.78 0 11.56 0 0 Z " fill="#F0A754" transform="translate(142,375)"/>
<path d="M0 0 C5.07224747 -0.04590269 10.1437748 -0.08573021 15.21606445 -0.10986328 C16.94167523 -0.11992326 18.66726895 -0.13357276 20.39282227 -0.15087891 C22.8726014 -0.17512754 25.35215523 -0.18648301 27.83203125 -0.1953125 C28.60400345 -0.20563507 29.37597565 -0.21595764 30.17134094 -0.22659302 C33.99281476 -0.22739422 35.74136107 -0.17242595 39 2 C26.79 2 14.58 2 2 2 C2 6.29 2 10.58 2 15 C1.01 15.495 1.01 15.495 0 16 C0 10.72 0 5.44 0 0 Z " fill="#091521" transform="translate(98,156)"/>
<path d="M0 0 C0.33 0 0.66 0 1 0 C1 2.31 1 4.62 1 7 C5.92977019 6.88174635 10.85933896 6.75749758 15.78881836 6.62768555 C17.46585987 6.58436833 19.14294458 6.54269093 20.82006836 6.50268555 C23.23043841 6.44490515 25.6405917 6.3812332 28.05078125 6.31640625 C28.80087967 6.29969376 29.55097809 6.28298126 30.32380676 6.26576233 C33.45677992 6.17655767 36.0070936 5.99763547 39 5 C39 6.32 39 7.64 39 9 C25.8 9 12.6 9 -1 9 C-0.67 6.03 -0.34 3.06 0 0 Z " fill="#304A81" transform="translate(189,137)"/>
<path d="M0 0 C6.8359375 -0.1953125 6.8359375 -0.1953125 9 0 C11 2 11 2 11.3125 4.5 C11.1578125 5.7375 11.1578125 5.7375 11 7 C7.91111478 9.05925681 7.29064073 9.2390374 3.8125 9.125 C1.9253125 9.063125 1.9253125 9.063125 0 9 C0 6.03 0 3.06 0 0 Z " fill="#FCF8F3" transform="translate(206,381)"/>
<path d="M0 0 C6.8359375 -0.1953125 6.8359375 -0.1953125 9 0 C11 2 11 2 11.3125 4.5 C11.1578125 5.7375 11.1578125 5.7375 11 7 C7.91111478 9.05925681 7.29064073 9.2390374 3.8125 9.125 C1.9253125 9.063125 1.9253125 9.063125 0 9 C0 6.03 0 3.06 0 0 Z " fill="#FBFAF7" transform="translate(115,381)"/>
<path d="M0 0 C1.32 0.33 2.64 0.66 4 1 C3.67 2.65 3.34 4.3 3 6 C7.95 6 12.9 6 18 6 C18 6.33 18 6.66 18 7 C11.565 7.495 11.565 7.495 5 8 C4.34 9.98 3.68 11.96 3 14 C0.69 14 -1.62 14 -4 14 C-3.00956295 9.16371695 -2.04301154 4.52381127 0 0 Z " fill="#F4A850" transform="translate(74,395)"/>
<path d="M0 0 C0.99 0.33 1.98 0.66 3 1 C3 1.66 3 2.32 3 3 C2.34 3 1.68 3 1 3 C1.0707373 3.79631836 1.14147461 4.59263672 1.21435547 5.41308594 C1.85265508 13.04351463 2.15792348 20.59470356 2.125 28.25 C2.12306641 29.37446533 2.12113281 30.49893066 2.11914062 31.6574707 C2.04686718 46.44441705 1.52154794 61.22327079 1 76 C0.67 76 0.34 76 0 76 C0 50.92 0 25.84 0 0 Z " fill="#E6C431" transform="translate(364,21)"/>
<path d="M0 0 C3 0.25 3 0.25 5 2.25 C5.25 5.25 5.25 5.25 5 8.25 C3 10.25 3 10.25 0.5625 10.5625 C-2 10.25 -2 10.25 -3.8125 9.0625 C-5.40199375 6.6364306 -5.36487512 5.09602594 -5 2.25 C-3 0.25 -3 0.25 0 0 Z " fill="#3EAFC4" transform="translate(257,62.75)"/>
<path d="M0 0 C0.66 0 1.32 0 2 0 C2 11.88 2 23.76 2 36 C-3.94 36 -9.88 36 -16 36 C-16 35.67 -16 35.34 -16 35 C-11.05 34.67 -6.1 34.34 -1 34 C-0.3142391 29.19967373 0.12041732 25.16722017 0.09765625 20.41015625 C0.09282227 18.61674805 0.09282227 18.61674805 0.08789062 16.78710938 C0.07951172 15.55798828 0.07113281 14.32886719 0.0625 13.0625 C0.05798828 11.80630859 0.05347656 10.55011719 0.04882812 9.25585938 C0.03709681 6.17052337 0.020681 3.08528684 0 0 Z " fill="#2769A9" transform="translate(357,109)"/>
<path d="M0 0 C0.33 0.66 0.66 1.32 1 2 C1.99 1.67 2.98 1.34 4 1 C5.66666667 1.33333333 7.33333333 1.66666667 9 2 C9.99 1.67 10.98 1.34 12 1 C12.22223194 3.74086056 12.34781139 5.43963721 10.875 7.8125 C8.15523346 9.53501881 6.15413751 9.32855599 3 9 C2.01 8.34 1.02 7.68 0 7 C-0.1875 3.375 -0.1875 3.375 0 0 Z " fill="#5BB88C" transform="translate(210,94)"/>
<path d="M0 0 C0 1.32 0 2.64 0 4 C1.32 4.33 2.64 4.66 4 5 C4 5.99 4 6.98 4 8 C0.75 8.75 0.75 8.75 -3 9 C-5.4375 7.375 -5.4375 7.375 -7 5 C-7.25 2.25 -7.25 2.25 -7 0 C-2.25 -1.125 -2.25 -1.125 0 0 Z " fill="#42B4C8" transform="translate(290,44)"/>
<path d="M0 0 C3.62343383 3.78813537 4.04524538 8.00589889 5 13 C2.03 13 -0.94 13 -4 13 C-2.125 3.89285714 -2.125 3.89285714 0 0 Z " fill="#F8F0E8" transform="translate(85,384)"/>
<path d="M0 0 C1.010625 0.0825 2.02125 0.165 3.0625 0.25 C5.0625 3.25 5.0625 3.25 4.8125 5.3125 C4.0625 7.25 4.0625 7.25 2.0625 9.25 C-2.49305556 8.69444444 -2.49305556 8.69444444 -3.9375 7.25 C-4.0625 4.25 -4.0625 4.25 -3.9375 1.25 C-2.9375 0.25 -2.9375 0.25 0 0 Z " fill="#F39E1F" transform="translate(268.9375,44.75)"/>
<path d="M0 0 C4.55555556 0.55555556 4.55555556 0.55555556 6 2 C6.1875 4.4375 6.1875 4.4375 6 7 C4 9 4 9 1.5 9.25 C-1 9 -1 9 -3 7 C-2.67028521 3.70285207 -2.3773161 2.3773161 0 0 Z " fill="#F39333" transform="translate(181,109)"/>
<path d="M0 0 C2.5625 0.1875 2.5625 0.1875 4.5625 2.1875 C4.8125 4.6875 4.8125 4.6875 4.5625 7.1875 C3.9025 7.8475 3.2425 8.5075 2.5625 9.1875 C-1.99305556 8.63194444 -1.99305556 8.63194444 -3.4375 7.1875 C-3.5625 4.1875 -3.5625 4.1875 -3.4375 1.1875 C-2.4375 0.1875 -2.4375 0.1875 0 0 Z " fill="#66CFC1" transform="translate(392.4375,14.8125)"/>
<path d="M0 0 C-0.875 6.75 -0.875 6.75 -2 9 C-0.02 9 1.96 9 4 9 C3.01 9.495 3.01 9.495 2 10 C2 10.66 2 11.32 2 12 C-0.31 12 -2.62 12 -5 12 C-4.67 10.35 -4.34 8.7 -4 7 C-4.99 7.33 -5.98 7.66 -7 8 C-6.8125 5.6875 -6.8125 5.6875 -6 3 C-1.86206897 0 -1.86206897 0 0 0 Z " fill="#F29937" transform="translate(82,389)"/>
<path d="M0 0 C2.5 0.125 2.5 0.125 3.5 1.125 C3.54080783 3.12458364 3.54254356 5.12545254 3.5 7.125 C0.625 7.75 0.625 7.75 -2.5 8.125 C-3.16 7.465 -3.82 6.805 -4.5 6.125 C-3.77607362 0.18880368 -3.77607362 0.18880368 0 0 Z " fill="#F4AD4C" transform="translate(324.5,14.875)"/>
<path d="M0 0 C0.66 0.33 1.32 0.66 2 1 C0.54540569 2.64913882 -0.91379257 4.29421782 -2.375 5.9375 C-3.18710937 6.85402344 -3.99921875 7.77054688 -4.8359375 8.71484375 C-7 11 -7 11 -9 12 C-9.72159424 13.64363134 -10.39351421 15.31050386 -11 17 C-11.99 17 -12.98 17 -14 17 C-11.99048808 9.85506874 -5.83726478 4.24528348 0 0 Z " fill="#1C2834" transform="translate(452,160)"/>
<path d="M0 0 C0 2.31 0 4.62 0 7 C-0.66 5.68 -1.32 4.36 -2 3 C-2.37125 3.639375 -2.7425 4.27875 -3.125 4.9375 C-5.59819742 7.65801716 -7.42707552 7.55338444 -11 8 C-11.99 8.66 -12.98 9.32 -14 10 C-14.33 9.01 -14.66 8.02 -15 7 C-12.87767021 5.82823482 -10.75242209 4.66245215 -8.625 3.5 C-7.72007812 2.99919922 -7.72007812 2.99919922 -6.796875 2.48828125 C-2.2265625 0 -2.2265625 0 0 0 Z " fill="#90D65F" transform="translate(271,78)"/>
<path d="M0 0 C0.66 0.66 1.32 1.32 2 2 C-0.64738916 3.4606285 -1.89448334 4 -5 4 C-5.77112541 8.72314313 -6.09764874 13.21521178 -6 18 C-6.66 17.67 -7.32 17.34 -8 17 C-8 12.05 -8 7.1 -8 2 C-1.9453125 0.2421875 -1.9453125 0.2421875 0 0 Z " fill="#77CB6C" transform="translate(241,95)"/>
<path d="M0 0 C0.66 0.33 1.32 0.66 2 1 C0.89718873 2.27200971 -0.20730769 3.54255853 -1.3125 4.8125 C-1.92738281 5.52019531 -2.54226562 6.22789062 -3.17578125 6.95703125 C-5 9 -5 9 -6.66796875 10.57421875 C-8.25696425 12.07661356 -8.25696425 12.07661356 -9 15 C-9.99 15.33 -10.98 15.66 -12 16 C-10.43900511 9.06224493 -5.8184277 3.8789518 0 0 Z " fill="#1F2934" transform="translate(19,161)"/>
<path d="M0 0 C0.33 0.99 0.66 1.98 1 3 C-4.17013419 3.09035186 -8.9265076 3.04071639 -14 2 C-17.00193549 1.91320935 -19.9976868 1.94113111 -23 2 C-23 1.67 -23 1.34 -23 1 C-15.34916042 -0.24911667 -7.72559014 -0.09053426 0 0 Z " fill="#42AAB6" transform="translate(597,295)"/>
<path d="M0 0 C3 0.25 3 0.25 5 2.25 C5.125 5.375 5.125 5.375 5 8.25 C4.67 6.93 4.34 5.61 4 4.25 C0.58357241 3.99984127 0.58357241 3.99984127 -3 4.25 C-3.66 5.24 -4.32 6.23 -5 7.25 C-5.125 4.875 -5.125 4.875 -5 2.25 C-3 0.25 -3 0.25 0 0 Z " fill="#5ABED0" transform="translate(257,62.75)"/>
<path d="M0 0 C2.1519437 3.22791555 2.20086443 4.28400809 2 8 C-1.57104439 6.12050295 -3.54744301 4.82946843 -5 1 C-6.65 1 -8.3 1 -10 1 C-10 0.34 -10 -0.32 -10 -1 C-6.00471255 -2.33176248 -3.90144863 -1.41870859 0 0 Z " fill="#52C0D1" transform="translate(293,43)"/>
<path d="M0 0 C0.99 0.33 1.98 0.66 3 1 C3 1.66 3 2.32 3 3 C2.34 3 1.68 3 1 3 C1.08378906 3.72960937 1.16757812 4.45921875 1.25390625 5.2109375 C2.19977215 14.90905625 1.70749928 24.30181756 1 34 C0.67 34 0.34 34 0 34 C0 22.78 0 11.56 0 0 Z " fill="#EEE139" transform="translate(364,21)"/>
<path d="M0 0 C0 2.31 0 4.62 0 7 C-0.66 5.68 -1.32 4.36 -2 3 C-3.21236328 3.63228516 -3.21236328 3.63228516 -4.44921875 4.27734375 C-5.51785156 4.82519531 -6.58648437 5.37304688 -7.6875 5.9375 C-8.74324219 6.48277344 -9.79898437 7.02804688 -10.88671875 7.58984375 C-13.66234047 8.8470576 -16.00272126 9.56069569 -19 10 C-15.79483445 7.4899306 -12.44094 5.38330654 -8.9375 3.3125 C-7.89464844 2.68988281 -6.85179687 2.06726563 -5.77734375 1.42578125 C-3 0 -3 0 0 0 Z " fill="#AFDF6A" transform="translate(359,29)"/>
<path d="M0 0 C0.33 0.66 0.66 1.32 1 2 C1.99 1.67 2.98 1.34 4 1 C5.66666667 1.33333333 7.33333333 1.66666667 9 2 C9.99 1.67 10.98 1.34 12 1 C12 2.65 12 4.3 12 6 C10.95199219 5.85691406 10.95199219 5.85691406 9.8828125 5.7109375 C8.97273437 5.60007812 8.06265625 5.48921875 7.125 5.375 C6.22007812 5.25898437 5.31515625 5.14296875 4.3828125 5.0234375 C3.20332031 5.01183594 3.20332031 5.01183594 2 5 C1.34 5.66 0.68 6.32 0 7 C0 4.69 0 2.38 0 0 Z " fill="#6DC388" transform="translate(210,94)"/>
<path d="M0 0 C1.485 0.99 1.485 0.99 3 2 C3.40843923 4.71203652 3.13336867 7.2437142 3 10 C2.01 10.33 1.02 10.66 0 11 C0 7.37 0 3.74 0 0 Z " fill="#0A1521" transform="translate(300,222)"/>
<path d="M0 0 C2.875 -0.1875 2.875 -0.1875 6 0 C8 3 8 3 7.625 5.1875 C7.41875 5.785625 7.2125 6.38375 7 7 C6.34 6.67 5.68 6.34 5 6 C5 4.68 5 3.36 5 2 C3.02 2.33 1.04 2.66 -1 3 C-0.67 2.01 -0.34 1.02 0 0 Z " fill="#F1B34B" transform="translate(266,45)"/>
<path d="M0 0 C2.97 0.495 2.97 0.495 6 1 C6.33 2.32 6.66 3.64 7 5 C4.69 4.67 2.38 4.34 0 4 C0 2.68 0 1.36 0 0 Z " fill="#41A9BD" transform="translate(285,48)"/>
<path d="M0 0 C2.97 0.495 2.97 0.495 6 1 C5.67 2.32 5.34 3.64 5 5 C3.35 4.67 1.7 4.34 0 4 C0 2.68 0 1.36 0 0 Z " fill="#F19A27" transform="translate(321,18)"/>
<path d="M0 0 C5.28 0.33 10.56 0.66 16 1 C16 1.33 16 1.66 16 2 C8.08 2.495 8.08 2.495 0 3 C0 2.01 0 1.02 0 0 Z " fill="#53B9B6" transform="translate(5,293)"/>
<path d="M0 0 C1.98 0.495 1.98 0.495 4 1 C3.67 1.66 3.34 2.32 3 3 C3.33 3.99 3.66 4.98 4 6 C2.35 5.67 0.7 5.34 -1 5 C-0.67 3.35 -0.34 1.7 0 0 Z " fill="#45BFB2" transform="translate(390,17)"/>
<path d="M0 0 C0.66 0 1.32 0 2 0 C2.19622241 4.21878192 1.80230168 7.17010894 0 11 C-0.33 11 -0.66 11 -1 11 C-1.14285714 3.57142857 -1.14285714 3.57142857 0 0 Z " fill="#09141E" transform="translate(449,186)"/>
<path d="M0 0 C0.66 0.66 1.32 1.32 2 2 C1.01 3.98 0.02 5.96 -1 8 C-1.99 8 -2.98 8 -4 8 C-2.87548273 5.0280615 -1.77706209 2.66559313 0 0 Z " fill="#29333D" transform="translate(442,169)"/>
<path d="M0 0 C2.31 0 4.62 0 7 0 C7.33 0.66 7.66 1.32 8 2 C5.36 2.33 2.72 2.66 0 3 C0 2.01 0 1.02 0 0 Z " fill="#08131D" transform="translate(185,192)"/>
<path d="M0 0 C0.66 0.33 1.32 0.66 2 1 C-1.12432397 3.52349243 -4.38060496 5.27256146 -8 7 C-8.33 6.34 -8.66 5.68 -9 5 C-7.54735962 4.1361871 -6.0876837 3.28419546 -4.625 2.4375 C-3.40683594 1.72400391 -3.40683594 1.72400391 -2.1640625 0.99609375 C-1.44992187 0.66738281 -0.73578125 0.33867188 0 0 Z " fill="#71D4CA" transform="translate(287,68)"/>
<path d="M0 0 C0 2.31 0 4.62 0 7 C-0.66 5.68 -1.32 4.36 -2 3 C-3.32 3.33 -4.64 3.66 -6 4 C-6 3.34 -6 2.68 -6 2 C-3 0 -3 0 0 0 Z " fill="#A0D950" transform="translate(359,29)"/>
<path d="M0 0 C0.66 0 1.32 0 2 0 C2.66 1.65 3.32 3.3 4 5 C2.68 5.33 1.36 5.66 0 6 C-0.38218767 4.34385343 -0.71395102 2.67542976 -1 1 C-0.67 0.67 -0.34 0.34 0 0 Z " fill="#54BA87" transform="translate(349,13)"/>
<path d="M0 0 C2 2 2 2 2 6 C-0.31 6 -2.62 6 -5 6 C-3.68 5.67 -2.36 5.34 -1 5 C-0.67 3.35 -0.34 1.7 0 0 Z " fill="#EFB265" transform="translate(384,378)"/>
<path d="M0 0 C2.64 0 5.28 0 8 0 C6.3125 1.5625 6.3125 1.5625 4 3 C1.25 2.6875 1.25 2.6875 -1 2 C-0.67 1.34 -0.34 0.68 0 0 Z " fill="#39A2BB" transform="translate(171,296)"/>
<path d="M0 0 C2.5 1.3125 2.5 1.3125 5 3 C5 3.99 5 4.98 5 6 C3.0625 5.25 3.0625 5.25 1 4 C0.25 1.875 0.25 1.875 0 0 Z " fill="#1C262F" transform="translate(71,163)"/>
<path d="M0 0 C3 3.75 3 3.75 3 6 C0.69 6 -1.62 6 -4 6 C-2.68 5.67 -1.36 5.34 0 5 C-0.33 4.01 -0.66 3.02 -1 2 C-0.67 1.34 -0.34 0.68 0 0 Z " fill="#EDB163" transform="translate(220,403)"/>
<path d="M0 0 C0.99 0 1.98 0 3 0 C2.34 2.31 1.68 4.62 1 7 C-0.0625 5.1875 -0.0625 5.1875 -1 3 C-0.67 2.01 -0.34 1.02 0 0 Z " fill="#1D2735" transform="translate(432,322)"/>
<path d="M0 0 C0.6875 1.75 0.6875 1.75 1 4 C-0.4375 6.25 -0.4375 6.25 -2 8 C-2.6875 6.25 -2.6875 6.25 -3 4 C-1.5625 1.75 -1.5625 1.75 0 0 Z " fill="#192730" transform="translate(244,304)"/>
<path d="M0 0 C2.475 0.495 2.475 0.495 5 1 C5 1.99 5 2.98 5 4 C3.35 3.67 1.7 3.34 0 3 C0 2.01 0 1.02 0 0 Z " fill="#52B487" transform="translate(211,99)"/>
</svg>
